<svg xmlns="http://www.w3.org/2000/svg" viewBox="0 0 68 68" width="68" height="68">
  <defs>
    <linearGradient id="bg" x1="0.13" y1="0" x2="0.63" y2="1">
      <stop offset="0" stop-color="#ff9d19"></stop>
      <stop offset="1" stop-color="#bb4b00"></stop>
    </linearGradient>
    <radialGradient id="gloss" cx="0.5" cy="-0.25" r="1.15">
      <stop offset="0" stop-color="#ffffff" stop-opacity="0.5"></stop>
      <stop offset="0.48" stop-color="#ffffff" stop-opacity="0.07"></stop>
      <stop offset="0.62" stop-color="#ffffff" stop-opacity="0"></stop>
    </radialGradient>
    <radialGradient id="base" cx="0.5" cy="1.1" r="0.9">
      <stop offset="0" stop-color="#832100" stop-opacity="0.55"></stop>
      <stop offset="0.6" stop-color="#832100" stop-opacity="0"></stop>
    </radialGradient>
  </defs>
  <circle cx="34" cy="34" r="34" fill="url(#bg)"></circle>
  <circle cx="34" cy="34" r="34" fill="url(#base)"></circle>
  <circle cx="34" cy="34" r="34" fill="url(#gloss)"></circle>
  <g transform="translate(17,17) scale(1.4167)" style="color:#fff">
  <path d="M11.5 5.5 A7 7 0 1 0 11.5 19.5 A7 7 0 1 0 11.5 5.5 Z" fill="none" stroke="currentColor" stroke-width="2.2" stroke-linecap="round" stroke-linejoin="round"></path>
  <path d="M8.8 10.8 V10.82 M14.2 10.8 V10.82 M8.6 14.2 C9.7 15.8 13.3 15.8 14.4 14.2" fill="none" stroke="currentColor" stroke-width="2.2" stroke-linecap="round" stroke-linejoin="round"></path>
  <path d="M18.9 3.4 C19.02 4.6 19.8 5.38 21 5.5 C19.8 5.62 19.02 6.4 18.9 7.6 C18.78 6.4 18 5.62 16.8 5.5 C18 5.38 18.78 4.6 18.9 3.4 Z" fill="currentColor" opacity="0.55"></path>
  </g>
</svg>